<svg width="65" height="66" viewBox="0 0 65 66" fill="none" xmlns="http://www.w3.org/2000/svg">
<g filter="url(#filter0_d_60_283)">
<rect x="3" y="3" width="59" height="60" rx="5" fill="white"/>
</g>
<path fill-rule="evenodd" clip-rule="evenodd" d="M38.4831 34.3332L29.0515 40.6294C28.7153 40.8538 28.2772 40.8538 27.9411 40.6294L27.2459 40.1653C26.6528 39.7694 26.6528 38.8978 27.2459 38.5019L34.7387 33.5L27.2459 28.4981C26.6528 28.1022 26.6528 27.2306 27.2459 26.8347L27.9411 26.3706C28.2772 26.1462 28.7153 26.1462 29.0515 26.3706L38.4831 32.6668C38.8141 32.8878 39 33.1875 39 33.5C39 33.8125 38.8141 34.1122 38.4831 34.3332Z" fill="#448AFF"/>
<defs>
<filter id="filter0_d_60_283" x="0.8" y="0.8" width="63.4" height="64.4" filterUnits="userSpaceOnUse" color-interpolation-filters="sRGB">
<feFlood flood-opacity="0" result="BackgroundImageFix"/>
<feColorMatrix in="SourceAlpha" type="matrix" values="0 0 0 0 0 0 0 0 0 0 0 0 0 0 0 0 0 0 127 0" result="hardAlpha"/>
<feMorphology radius="1" operator="erode" in="SourceAlpha" result="effect1_dropShadow_60_283"/>
<feOffset/>
<feGaussianBlur stdDeviation="1.6"/>
<feComposite in2="hardAlpha" operator="out"/>
<feColorMatrix type="matrix" values="0 0 0 0 0 0 0 0 0 0 0 0 0 0 0 0 0 0 1 0"/>
<feBlend mode="normal" in2="BackgroundImageFix" result="effect1_dropShadow_60_283"/>
<feBlend mode="normal" in="SourceGraphic" in2="effect1_dropShadow_60_283" result="shape"/>
</filter>
</defs>
</svg>
