<svg width="115" height="118" viewBox="0 0 115 118" fill="none" xmlns="http://www.w3.org/2000/svg">
<path fill-rule="evenodd" clip-rule="evenodd" d="M3.74045 3.74253C6.13541 1.34623 9.38368 0 12.7707 0H25.5414C28.9284 0 32.1766 1.34623 34.5716 3.74253C36.9666 6.13882 38.312 9.3889 38.312 12.7778V25.5556C38.312 28.9444 36.9666 32.1945 34.5716 34.5908C32.1766 36.9871 28.9284 38.3333 25.5414 38.3333H12.7707C9.38368 38.3333 6.13541 36.9871 3.74045 34.5908C1.34548 32.1945 0 28.9444 0 25.5556V12.7778C0 9.3889 1.34548 6.13882 3.74045 3.74253ZM25.5414 12.7778L12.7707 12.7778L12.7707 25.5556H25.5414V12.7778ZM57.4681 0C60.9946 0 63.8534 2.8604 63.8534 6.38889V12.7778C63.8534 16.3063 60.9946 19.1667 57.4681 19.1667C53.9415 19.1667 51.0827 16.3063 51.0827 12.7778V6.38889C51.0827 2.8604 53.9415 0 57.4681 0ZM80.3645 3.74253C82.7595 1.34623 86.0078 0 89.3948 0H102.165C105.552 0 108.801 1.34623 111.196 3.74253C113.591 6.13883 114.936 9.38891 114.936 12.7778V25.5556C114.936 28.9444 113.591 32.1945 111.196 34.5908C108.801 36.9871 105.552 38.3333 102.165 38.3333H89.3948C86.0078 38.3333 82.7595 36.9871 80.3645 34.5908C77.9696 32.1945 76.6241 28.9444 76.6241 25.5556V12.7778C76.6241 9.38891 77.9696 6.13883 80.3645 3.74253ZM102.165 12.7778H89.3948L89.3948 25.5556H102.165V12.7778ZM57.4681 31.9444C60.9946 31.9444 63.8534 34.8049 63.8534 38.3333V51.1111H83.0733C86.5998 51.1111 89.4586 53.9715 89.4586 57.5C89.4586 61.0285 86.5998 63.8889 83.0733 63.8889H57.4681C53.9415 63.8889 51.0827 61.0285 51.0827 57.5V38.3333C51.0827 34.8049 53.9415 31.9444 57.4681 31.9444ZM0 57.5C0 53.9715 2.85881 51.1111 6.38534 51.1111H31.9267C35.4532 51.1111 38.312 53.9715 38.312 57.5C38.312 61.0285 35.4532 63.8889 31.9267 63.8889H6.38534C2.85881 63.8889 0 61.0285 0 57.5ZM102.165 57.5C102.165 53.9715 105.024 51.1111 108.551 51.1111H108.615C112.141 51.1111 115 53.9715 115 57.5C115 61.0285 112.141 63.8889 108.615 63.8889H108.551C105.024 63.8889 102.165 61.0285 102.165 57.5ZM3.74045 80.4092C6.13542 78.0129 9.3837 76.6667 12.7707 76.6667H25.5414C28.9283 76.6667 32.1766 78.0129 34.5716 80.4092C36.9666 82.8055 37.2336 83.6962 37.2336 87.0851L20.9734 102.222H38.312C38.312 105.611 36.9666 108.861 34.5716 111.258C32.1766 113.654 28.9283 115 25.5414 115H12.7707C9.3837 115 6.13542 113.654 3.74045 111.258C1.34548 108.861 0 105.611 0 102.222V89.4445C0 86.0556 1.34548 82.8055 3.74045 80.4092ZM25.5414 89.4445L12.7707 89.4445L12.7707 102.222L25.5414 89.4445Z" fill="white"/>
<path d="M45.4344 115.1V77.8148C45.4344 76.7102 46.3268 75.8111 47.4299 75.8687C56.8861 76.3627 72.6713 80.3933 73.1879 93.7437C73.6996 106.964 57.7447 114.378 47.8185 116.993C46.5929 117.316 45.4344 116.367 45.4344 115.1Z" fill="#448AFF"/>
<path d="M97.1791 113.296C87.5984 113.296 81.6136 108.095 81.6136 100.403V80.9046C81.6136 79.0346 83.1296 77.5186 84.9997 77.5186V77.5186C86.8698 77.5186 88.3858 79.0346 88.3858 80.9046V94.0722C88.3858 97.8407 88.9251 102.732 92.5133 103.884C93.5092 104.204 94.8341 104.204 97.2054 104.204C99.7213 104.204 101.101 104.204 102.145 103.817C105.528 102.562 105.972 97.9472 105.972 94.3394V80.9046C105.972 79.0346 107.488 77.5186 109.359 77.5186V77.5186C111.229 77.5186 112.745 79.0346 112.745 80.9046V100.403C112.745 108.095 106.812 113.296 97.1791 113.296Z" fill="white"/>
</svg>
